<?xml version="1.0" encoding="UTF-8" standalone="no"?>
<svg width="512px" height="512px" viewBox="0 0 512 512" version="1.1" xmlns="http://www.w3.org/2000/svg" xmlns:xlink="http://www.w3.org/1999/xlink" xmlns:sketch="http://www.bohemiancoding.com/sketch/ns">
    <!-- Generator: Sketch 3.4 (15575) - http://www.bohemiancoding.com/sketch -->
    <title>follow-color</title>
    <desc>Created with Sketch.</desc>
    <defs></defs>
    <g id="Icons" stroke="none" stroke-width="1" fill="none" fill-rule="evenodd" sketch:type="MSPage">
        <g id="follow-color" sketch:type="MSArtboardGroup" fill="#9A5CB4">
            <g id="Shape-+-+" sketch:type="MSLayerGroup" transform="translate(36.000000, -105.000000)">
                <path d="M385.089399,514.617595 C350.334966,497.239736 363.717877,510.53969 321.058972,492.754976 C278.400068,474.993644 268.293937,469.194789 268.293937,469.194789 L267.919982,428.467186 C267.919982,428.467186 283.897205,416.280237 288.884828,377.75994 C298.855401,380.659368 302.235018,366.007906 302.772578,356.645561 C303.361557,347.601218 308.671716,319.401947 296.466764,321.917902 C298.962913,303.090329 300.921501,286.07256 300.033358,277.060952 C296.980952,245.43381 275.2308,212.408395 220.324873,210 C173.645954,212.413072 143.341584,245.457192 140.284503,277.084335 C139.405709,286.095942 141.196018,303.099682 143.692167,321.95999 C131.496563,319.4113 136.745955,347.657335 137.283515,356.697002 C137.872494,366.059347 141.172646,380.76225 151.171265,377.858146 C156.135516,416.378444 172.112739,428.663599 172.112739,428.663599 L171.710737,469.596968 C171.710737,469.596968 161.604606,475.798002 118.945702,493.554657 C76.2867979,511.344048 89.6650342,497.235059 54.9152758,514.612918 C1.13686838e-13,542.087332 1.13686838e-13,617.631448 1.13686838e-13,617.631448 L220.320199,617.631448 L440,617.631448 C440,617.631448 440,542.087332 385.089399,514.617595 L385.089399,514.617595 Z" id="Shape" sketch:type="MSShapeGroup"></path>
                <text id="+" sketch:type="MSTextLayer" font-family="Helvetica Neue" font-size="301" font-weight="bold">
                    <tspan x="309" y="293">+</tspan>
                </text>
            </g>
        </g>
    </g>
</svg>